<svg xmlns="http://www.w3.org/2000/svg" viewBox="0 0 32 32">
  <rect width="32" height="32" rx="6" fill="#0a0a1a"/>
  <defs>
    <linearGradient id="g" x1="4" y1="0" x2="28" y2="0" gradientUnits="userSpaceOnUse">
      <stop offset="0%" stop-color="#00ccff"/>
      <stop offset="50%" stop-color="#a855f7"/>
      <stop offset="100%" stop-color="#00ccff"/>
    </linearGradient>
  </defs>
  <path d="M4 24 C6 24, 7 10, 10 8 C13 6, 13 20, 16 20 C19 20, 19 6, 22 8 C25 10, 26 24, 28 24" fill="none" stroke="url(#g)" stroke-width="2.5" stroke-linecap="round"/>
  <path d="M4 24 C6 24, 7 10, 10 8 C13 6, 13 20, 16 20 C19 20, 19 6, 22 8 C25 10, 26 24, 28 24 L28 28 L4 28 Z" fill="url(#g)" opacity="0.15"/>
</svg>
